<svg width="353" height="52" viewBox="0 0 353 52" fill="none" xmlns="http://www.w3.org/2000/svg">
<path d="M0.246094 51V1.78125H10.1602V51H0.246094ZM13.957 28.5703V18.8672H16.2773C18.293 18.8672 19.4648 17.9766 19.793 16.1953C19.8398 15.9141 19.8633 15.6094 19.8633 15.2812C19.582 12.9844 18.3867 11.7422 16.2773 11.5547H13.957V1.78125H16.5586C25.3242 2.10937 29.7773 6.51563 29.918 15C29.918 21.2812 28.1133 25.3359 24.5039 27.1641C22.4883 28.1484 19.8398 28.6172 16.5586 28.5703C16.418 28.5703 15.5508 28.5703 13.957 28.5703ZM33.9258 51V0.65625H44.0508V51H33.9258ZM49.6758 40.3828V10.9219H59.2383V39.2578C59.332 41.0391 60.4102 41.9531 62.4727 42V51.3516C57.8789 51.3516 54.293 49.5469 51.7148 45.9375C50.3555 44.0156 49.6758 42.1641 49.6758 40.3828ZM65.707 51.3516V42C67.7227 41.7656 68.8242 40.8516 69.0117 39.2578V10.9219H78.5742V40.3828C78.5742 42.5859 77.543 44.8125 75.4805 47.0625C72.8555 49.875 69.5977 51.3047 65.707 51.3516ZM82.6523 40.4531L91.3711 38.8359C91.3711 40.3828 92.168 41.4844 93.7617 42.1406C94.3242 42.3281 94.8398 42.4453 95.3086 42.4922V51.3516C89.8711 51.3516 86.0977 49.4297 83.9883 45.5859C83.0977 43.9922 82.6523 42.2812 82.6523 40.4531ZM83.0742 21.8906C83.0742 17.5312 85.1133 14.2969 89.1914 12.1875C91.207 11.1094 93.1992 10.5703 95.168 10.5703V19.2891C92.8711 19.3359 91.7227 20.2031 91.7227 21.8906C91.7227 23.6719 93.8789 25.2422 98.1914 26.6016C99.7852 27.1172 101.66 27.6094 103.816 28.0781C107.051 28.6875 109.348 30.4922 110.707 33.4922C111.41 35.0391 111.762 36.75 111.762 38.625C111.762 43.5 109.84 47.0859 105.996 49.3828C103.793 50.6953 101.285 51.3516 98.4727 51.3516V42.4922C100.113 42.4922 101.332 41.9531 102.129 40.875C102.504 40.3594 102.691 39.7969 102.691 39.1875C102.691 37.7344 100.91 36.4688 97.3477 35.3906C96.7852 35.25 95.918 35.0156 94.7461 34.6875C92.2617 34.0312 90.5508 33.4922 89.6133 33.0703C86.1914 31.3359 84.1289 28.7812 83.4258 25.4062C83.1914 24.2812 83.0742 23.1094 83.0742 21.8906ZM98.332 19.2891L98.4023 10.5703C102.621 10.5703 106.02 12.1172 108.598 15.2109C110.238 17.2266 111.059 19.3594 111.059 21.6094L102.41 23.0859C102.41 20.9766 101.285 19.7344 99.0352 19.3594C98.7539 19.3125 98.5195 19.2891 98.332 19.2891ZM114.574 40.4531L123.293 38.8359C123.293 40.3828 124.09 41.4844 125.684 42.1406C126.246 42.3281 126.762 42.4453 127.23 42.4922V51.3516C121.793 51.3516 118.02 49.4297 115.91 45.5859C115.02 43.9922 114.574 42.2812 114.574 40.4531ZM114.996 21.8906C114.996 17.5312 117.035 14.2969 121.113 12.1875C123.129 11.1094 125.121 10.5703 127.09 10.5703V19.2891C124.793 19.3359 123.645 20.2031 123.645 21.8906C123.645 23.6719 125.801 25.2422 130.113 26.6016C131.707 27.1172 133.582 27.6094 135.738 28.0781C138.973 28.6875 141.27 30.4922 142.629 33.4922C143.332 35.0391 143.684 36.75 143.684 38.625C143.684 43.5 141.762 47.0859 137.918 49.3828C135.715 50.6953 133.207 51.3516 130.395 51.3516V42.4922C132.035 42.4922 133.254 41.9531 134.051 40.875C134.426 40.3594 134.613 39.7969 134.613 39.1875C134.613 37.7344 132.832 36.4688 129.27 35.3906C128.707 35.25 127.84 35.0156 126.668 34.6875C124.184 34.0312 122.473 33.4922 121.535 33.0703C118.113 31.3359 116.051 28.7812 115.348 25.4062C115.113 24.2812 114.996 23.1094 114.996 21.8906ZM130.254 19.2891L130.324 10.5703C134.543 10.5703 137.941 12.1172 140.52 15.2109C142.16 17.2266 142.98 19.3594 142.98 21.6094L134.332 23.0859C134.332 20.9766 133.207 19.7344 130.957 19.3594C130.676 19.3125 130.441 19.2891 130.254 19.2891Z" fill="black"/>
<path d="M162.316 34.8281V25.8984H170.965V15.9844H179.895V25.8984H188.684V34.8281H179.895V44.8828H170.965V34.8281H162.316Z" fill="#FCA213"/>
<path d="M208.582 38.2734V14.5781C208.582 11.8594 209.59 9.21094 211.605 6.63281C214.277 3.21094 217.887 1.47656 222.434 1.42969V11.3438C220.465 11.3906 219.199 12.3047 218.637 14.0859C218.543 14.2734 218.496 14.4375 218.496 14.5781V38.2734C218.496 39.0234 218.895 39.75 219.691 40.4531C220.441 41.1094 221.355 41.4375 222.434 41.4375V51.3516C217.184 51.3516 213.223 49.1484 210.551 44.7422C209.238 42.4922 208.582 40.3359 208.582 38.2734ZM226.23 51.3516V41.4375C226.23 41.4375 226.77 41.2266 227.848 40.8047C228.504 40.3359 228.949 39.8438 229.184 39.3281C229.418 38.7188 229.535 37.8516 229.535 36.7266V35.8828L239.238 38.2031C239.238 42.2812 237.598 45.6562 234.316 48.3281C231.832 50.3438 229.137 51.3516 226.23 51.3516ZM226.23 11.3438V1.42969C229.652 1.42969 232.746 2.92969 235.512 5.92969C237.996 8.64844 239.238 11.5781 239.238 14.7188L229.535 17.25V16.1953C229.535 15.0234 229.418 14.1562 229.184 13.5938C228.996 13.125 228.645 12.7031 228.129 12.3281C227.66 11.9531 227.238 11.6953 226.863 11.5547L226.23 11.3438ZM243.598 51V0.65625H253.723V51H243.598ZM258.434 41.7188C258.434 44.4375 259.723 46.7344 262.301 48.6094C264.504 50.2031 267.176 51 270.316 51V42.3516C267.926 42.3516 266.59 41.7891 266.309 40.6641C266.262 40.3828 266.238 40.1016 266.238 39.8203V38.8359C266.285 38.0391 266.59 37.5 267.152 37.2188C267.387 37.0781 268.254 36.8203 269.754 36.4453C273.41 35.4141 275.871 34.5234 277.137 33.7734V39.5391C277.137 40.9453 276.48 41.8359 275.168 42.2109C274.84 42.3047 274.488 42.3516 274.113 42.3516V51C277.02 50.9531 279.387 50.2031 281.215 48.75C282.949 50.25 285.246 51 288.105 51V42.2812C286.84 42.1875 286.184 41.4375 286.137 40.0312V21.6797C286.137 19.1016 285.059 16.7109 282.902 14.5078C280.512 12.1172 277.559 10.9219 274.043 10.9219V19.5703C276.059 19.7109 277.09 20.625 277.137 22.3125V23.9297C277.137 25.2422 274.629 26.7422 269.613 28.4297C265.301 29.9297 262.84 30.8438 262.23 31.1719C259.746 32.8125 258.48 35.1328 258.434 38.1328V41.7188ZM258.926 20.9766L267.082 24.0703C267.129 21.1172 268.23 19.6172 270.387 19.5703V10.9219C267.152 10.9219 264.316 12.0938 261.879 14.4375C259.957 16.4062 258.973 18.5859 258.926 20.9766ZM291.27 40.4531L299.988 38.8359C299.988 40.3828 300.785 41.4844 302.379 42.1406C302.941 42.3281 303.457 42.4453 303.926 42.4922V51.3516C298.488 51.3516 294.715 49.4297 292.605 45.5859C291.715 43.9922 291.27 42.2812 291.27 40.4531ZM291.691 21.8906C291.691 17.5312 293.73 14.2969 297.809 12.1875C299.824 11.1094 301.816 10.5703 303.785 10.5703V19.2891C301.488 19.3359 300.34 20.2031 300.34 21.8906C300.34 23.6719 302.496 25.2422 306.809 26.6016C308.402 27.1172 310.277 27.6094 312.434 28.0781C315.668 28.6875 317.965 30.4922 319.324 33.4922C320.027 35.0391 320.379 36.75 320.379 38.625C320.379 43.5 318.457 47.0859 314.613 49.3828C312.41 50.6953 309.902 51.3516 307.09 51.3516V42.4922C308.73 42.4922 309.949 41.9531 310.746 40.875C311.121 40.3594 311.309 39.7969 311.309 39.1875C311.309 37.7344 309.527 36.4688 305.965 35.3906C305.402 35.25 304.535 35.0156 303.363 34.6875C300.879 34.0312 299.168 33.4922 298.23 33.0703C294.809 31.3359 292.746 28.7812 292.043 25.4062C291.809 24.2812 291.691 23.1094 291.691 21.8906ZM306.949 19.2891L307.02 10.5703C311.238 10.5703 314.637 12.1172 317.215 15.2109C318.855 17.2266 319.676 19.3594 319.676 21.6094L311.027 23.0859C311.027 20.9766 309.902 19.7344 307.652 19.3594C307.371 19.3125 307.137 19.2891 306.949 19.2891ZM323.191 40.4531L331.91 38.8359C331.91 40.3828 332.707 41.4844 334.301 42.1406C334.863 42.3281 335.379 42.4453 335.848 42.4922V51.3516C330.41 51.3516 326.637 49.4297 324.527 45.5859C323.637 43.9922 323.191 42.2812 323.191 40.4531ZM323.613 21.8906C323.613 17.5312 325.652 14.2969 329.73 12.1875C331.746 11.1094 333.738 10.5703 335.707 10.5703V19.2891C333.41 19.3359 332.262 20.2031 332.262 21.8906C332.262 23.6719 334.418 25.2422 338.73 26.6016C340.324 27.1172 342.199 27.6094 344.355 28.0781C347.59 28.6875 349.887 30.4922 351.246 33.4922C351.949 35.0391 352.301 36.75 352.301 38.625C352.301 43.5 350.379 47.0859 346.535 49.3828C344.332 50.6953 341.824 51.3516 339.012 51.3516V42.4922C340.652 42.4922 341.871 41.9531 342.668 40.875C343.043 40.3594 343.23 39.7969 343.23 39.1875C343.23 37.7344 341.449 36.4688 337.887 35.3906C337.324 35.25 336.457 35.0156 335.285 34.6875C332.801 34.0312 331.09 33.4922 330.152 33.0703C326.73 31.3359 324.668 28.7812 323.965 25.4062C323.73 24.2812 323.613 23.1094 323.613 21.8906ZM338.871 19.2891L338.941 10.5703C343.16 10.5703 346.559 12.1172 349.137 15.2109C350.777 17.2266 351.598 19.3594 351.598 21.6094L342.949 23.0859C342.949 20.9766 341.824 19.7344 339.574 19.3594C339.293 19.3125 339.059 19.2891 338.871 19.2891Z" fill="#BCBCBC"/>
</svg>
